<svg xmlns="http://www.w3.org/2000/svg" viewBox="0 0 512 512">
  <defs>
    <linearGradient id="bg" x1="0" y1="0" x2="1" y2="1">
      <stop offset="0%" stop-color="#15803d"/>
      <stop offset="100%" stop-color="#052e16"/>
    </linearGradient>
  </defs>

  <rect width="512" height="512" rx="120" fill="url(#bg)"/>

  <!-- Kellner -->
  <circle cx="185" cy="160" r="42" fill="#ffffff" opacity=".96"/>
  <path d="M112 340c0-62 32-108 73-108s73 46 73 108v50H112z"
        fill="#ffffff" opacity=".96"/>

  <!-- Tablett -->
  <!-- <path d="M260 205h78"
        stroke="#ffffff"
        stroke-width="24"
        stroke-linecap="round"/>
  <path d="M298 205v42"
        stroke="#ffffff"
        stroke-width="18"
        stroke-linecap="round"/> -->

  <!-- Bierglas -->
  <path d="M325 118h52v82a32 32 0 0 1-64 0v-82h12z"
        fill="none"
        stroke="#ffffff"
        stroke-width="14"
        stroke-linejoin="round"/>
  <path d="M377 142h22c17 0 29 12 29 29s-12 29-29 29h-22"
        fill="none"
        stroke="#ffffff"
        stroke-width="14"
        stroke-linecap="round"/>
  <path d="M335 146h30M335 176h30"
        stroke="#16a34a"
        stroke-width="10"
        stroke-linecap="round"/>

  <!-- Euro / Abrechnung -->
  <circle cx="344" cy="350" r="62" fill="#16a34a"/>
  <text x="344" y="374"
        text-anchor="middle"
        font-family="Arial, Helvetica, sans-serif"
        font-size="76"
        font-weight="700"
        fill="#ffffff">€</text>
</svg>